<svg width="13" height="13" viewBox="0 0 13 13" fill="none" xmlns="http://www.w3.org/2000/svg">
<path fill-rule="evenodd" clip-rule="evenodd" d="M1.28088 0.300303C0.988298 0.00710358 0.513424 0.00660695 0.220225 0.299194C-0.0729745 0.59178 -0.0734712 1.06665 0.219116 1.35985L5.01164 6.16242L0.224542 10.9585C-0.0680754 11.2517 -0.0676282 11.7266 0.225541 12.0192C0.51871 12.3118 0.993583 12.3114 1.2862 12.0182L6.0712 7.22419L10.8617 12.0247C11.1543 12.3179 11.6291 12.3184 11.9223 12.0258C12.2155 11.7332 12.216 11.2583 11.9234 10.9651L7.13086 6.16253L11.9199 1.36448C12.2125 1.07131 12.212 0.596437 11.9189 0.30382C11.6257 0.0112026 11.1508 0.0116497 10.8582 0.304819L6.07131 5.10076L1.28088 0.300303Z" fill="#A2ADBE"/>
</svg>
